<svg width="22" height="22" viewBox="0 0 22 22" fill="none" xmlns="http://www.w3.org/2000/svg">
<mask id="mask0_7_1978" style="mask-type:alpha" maskUnits="userSpaceOnUse" x="1" y="1" width="20" height="20">
<rect x="1" y="1" width="20" height="20" fill="#D9D9D9"/>
</mask>
<g mask="url(#mask0_7_1978)">
<path d="M6.5 13.7917C6.69444 13.6944 6.89236 13.6215 7.09375 13.5729C7.29514 13.5243 7.51389 13.5 7.75 13.5H8V4.5H7.75C7.40278 4.5 7.10764 4.62153 6.86458 4.86458C6.62153 5.10764 6.5 5.40278 6.5 5.75V13.7917ZM9.5 13.5H15.5V4.5H9.5V13.5ZM7.75 19C6.99042 19 6.34222 18.7315 5.80542 18.1946C5.26847 17.6578 5 17.0096 5 16.25V5.77083C5 5.00556 5.26847 4.35243 5.80542 3.81146C6.34222 3.27049 6.99042 3 7.75 3H15.5C15.9125 3 16.2656 3.14688 16.5594 3.44063C16.8531 3.73438 17 4.0875 17 4.5V14.3958C17 14.5493 16.9514 14.6883 16.8542 14.8129C16.7569 14.9376 16.625 15.0347 16.4583 15.1042C16.2361 15.2014 16.0625 15.3542 15.9375 15.5625C15.8125 15.7708 15.75 16 15.75 16.25C15.75 16.5 15.816 16.7292 15.9479 16.9375C16.0799 17.1458 16.2431 17.2917 16.4375 17.375C16.6181 17.4444 16.7569 17.5486 16.8542 17.6875C16.9514 17.8264 17 17.9861 17 18.1667C17 18.3889 16.934 18.5833 16.8021 18.75C16.6701 18.9167 16.4931 19 16.2708 19H7.75ZM7.75 17.5H14.5417C14.4444 17.3056 14.3715 17.1111 14.3229 16.9167C14.2743 16.7222 14.25 16.5051 14.25 16.2652C14.25 16.0395 14.2778 15.8208 14.3333 15.6092C14.3889 15.3975 14.4653 15.1944 14.5625 15H7.75C7.38889 15 7.09028 15.1215 6.85417 15.3646C6.61806 15.6076 6.5 15.9028 6.5 16.25C6.5 16.6111 6.61806 16.9097 6.85417 17.1458C7.09028 17.3819 7.38889 17.5 7.75 17.5Z" fill="#6E6E6E"/>
</g>
</svg>
