<svg width="22" height="22" viewBox="0 0 22 22" fill="none" xmlns="http://www.w3.org/2000/svg">
<g id="Overview">
<g id="space_dashboard">
<mask id="mask0_957_2659" style="mask-type:alpha" maskUnits="userSpaceOnUse" x="1" y="1" width="20" height="20">
<rect id="Bounding box" x="1" y="1" width="20" height="20" fill="#D9D9D9"/>
</mask>
<g mask="url(#mask0_957_2659)">
<path id="space_dashboard_2" d="M5.5625 18C5.15972 18 4.79861 17.8403 4.47917 17.5208C4.15972 17.2014 4 16.8403 4 16.4375V5.5C4 5.0875 4.14931 4.73438 4.44792 4.44063C4.74653 4.14688 5.09722 4 5.5 4H16.5C16.9125 4 17.2656 4.14688 17.5594 4.44063C17.8531 4.73438 18 5.0875 18 5.5V16.5C18 16.9028 17.8531 17.2535 17.5594 17.5521C17.2656 17.8507 16.9125 18 16.5 18H5.5625ZM5.5 16.5H10.25V5.5H5.5V16.5ZM11.75 16.5H16.5V11H11.75V16.5ZM11.75 9.5H16.5V5.5H11.75V9.5Z" fill="#636363"/>
</g>
</g>
</g>
</svg>
