<svg width="22" height="22" viewBox="0 0 22 22" fill="none" xmlns="http://www.w3.org/2000/svg">
<mask id="mask0_7_1984" style="mask-type:alpha" maskUnits="userSpaceOnUse" x="1" y="1" width="20" height="20">
<rect x="1" y="1" width="20" height="20" fill="currentColor"/>
</mask>
<g mask="url(#mask0_7_1984)">
<path d="M10.9977 16C11.277 16 11.5139 15.9035 11.7083 15.7106C11.9028 15.5178 12 15.2817 12 15.0023C12 14.723 11.9035 14.4861 11.7106 14.2917C11.5178 14.0972 11.2817 14 11.0023 14C10.723 14 10.4861 14.0965 10.2917 14.2894C10.0972 14.4822 10 14.7183 10 14.9977C10 15.277 10.0965 15.5139 10.2894 15.7083C10.4822 15.9028 10.7183 16 10.9977 16ZM11.0058 19C9.90472 19 8.86806 18.7917 7.89583 18.375C6.92361 17.9583 6.07292 17.3854 5.34375 16.6562C4.61458 15.9271 4.04167 15.0767 3.625 14.105C3.20833 13.1333 3 12.0951 3 10.9904C3 9.88569 3.20833 8.85069 3.625 7.88542C4.04167 6.92014 4.61458 6.07292 5.34375 5.34375C6.07292 4.61458 6.92333 4.04167 7.895 3.625C8.86667 3.20833 9.90486 3 11.0096 3C12.1143 3 13.1493 3.20833 14.1146 3.625C15.0799 4.04167 15.9271 4.61458 16.6562 5.34375C17.3854 6.07292 17.9583 6.92167 18.375 7.89C18.7917 8.85847 19 9.89319 19 10.9942C19 12.0953 18.7917 13.1319 18.375 14.1042C17.9583 15.0764 17.3854 15.9271 16.6562 16.6562C15.9271 17.3854 15.0783 17.9583 14.11 18.375C13.1415 18.7917 12.1068 19 11.0058 19ZM11 17.5C12.8056 17.5 14.3403 16.8681 15.6042 15.6042C16.8681 14.3403 17.5 12.8056 17.5 11C17.5 9.19444 16.8681 7.65972 15.6042 6.39583C14.3403 5.13194 12.8056 4.5 11 4.5C9.19444 4.5 7.65972 5.13194 6.39583 6.39583C5.13194 7.65972 4.5 9.19444 4.5 11C4.5 12.8056 5.13194 14.3403 6.39583 15.6042C7.65972 16.8681 9.19444 17.5 11 17.5ZM11.0673 7.41667C11.4188 7.41667 11.7247 7.52924 11.9848 7.75438C12.2449 7.97938 12.375 8.26069 12.375 8.59833C12.375 8.90778 12.2847 9.18056 12.1042 9.41667C11.9236 9.65278 11.7153 9.86806 11.4792 10.0625C11.1597 10.3403 10.875 10.6528 10.625 11C10.375 11.3472 10.2569 11.7361 10.2708 12.1667C10.2708 12.3611 10.3408 12.5174 10.4808 12.6354C10.6208 12.7535 10.7842 12.8125 10.9708 12.8125C11.1708 12.8125 11.3403 12.7535 11.4792 12.6354C11.6181 12.5174 11.7083 12.3611 11.75 12.1667C11.8194 11.8611 11.9514 11.5914 12.1458 11.3575C12.3403 11.1235 12.5486 10.9001 12.7708 10.6875C13.0903 10.3819 13.3507 10.0417 13.5521 9.66667C13.7535 9.29167 13.8542 8.88889 13.8542 8.45833C13.8542 7.75 13.5799 7.16319 13.0312 6.69792C12.4826 6.23264 11.8305 6 11.0748 6C10.5527 6 10.059 6.11458 9.59375 6.34375C9.12847 6.57292 8.75583 6.9116 8.47583 7.35979C8.36694 7.52271 8.33681 7.70139 8.38542 7.89583C8.43403 8.09028 8.54861 8.22917 8.72917 8.3125C8.92361 8.40972 9.11806 8.43056 9.3125 8.375C9.50694 8.31944 9.66667 8.21528 9.79167 8.0625C9.94444 7.86806 10.1319 7.71181 10.3542 7.59375C10.5764 7.47569 10.8141 7.41667 11.0673 7.41667Z" fill="currentColor"/>
</g>
</svg>
