<svg width="22" height="22" viewBox="0 0 22 22" fill="none" xmlns="http://www.w3.org/2000/svg">
<mask id="mask0_961_2361" style="mask-type:alpha" maskUnits="userSpaceOnUse" x="1" y="1" width="20" height="20">
<rect x="1" y="1" width="20" height="20" fill="#D9D9D9"/>
</mask>
<g mask="url(#mask0_961_2361)">
<path d="M5.5 18C5.0875 18 4.73437 17.8531 4.44062 17.5594C4.14687 17.2656 4 16.9125 4 16.5V6.625C4 6.42557 4.04167 6.23683 4.125 6.05877C4.20833 5.8807 4.3125 5.71528 4.4375 5.5625L5.5625 4.4375C5.6875 4.28472 5.84722 4.17361 6.04167 4.10417C6.23611 4.03472 6.43056 4 6.625 4H15.375C15.5694 4 15.7604 4.03472 15.9479 4.10417C16.1354 4.17361 16.2986 4.28472 16.4375 4.4375L17.5625 5.5625C17.6875 5.71528 17.7917 5.8807 17.875 6.05877C17.9583 6.23683 18 6.42557 18 6.625V16.5C18 16.9125 17.8531 17.2656 17.5594 17.5594C17.2656 17.8531 16.9125 18 16.5 18H5.5ZM5.625 6.5H16.375L15.375 5.5H6.625L5.625 6.5ZM5.5 16.5H16.5V8H5.5V16.5ZM13.625 12.25L12.4375 13.4583C12.2847 13.6111 12.2118 13.7847 12.2188 13.9792C12.2257 14.1736 12.3056 14.3472 12.4583 14.5C12.6111 14.6528 12.7847 14.7292 12.9792 14.7292C13.1736 14.7292 13.3472 14.6528 13.5 14.5L15.2292 12.7708C15.3819 12.6231 15.4583 12.4508 15.4583 12.2538C15.4583 12.0568 15.3819 11.8819 15.2292 11.7292L13.5 10C13.3472 9.84722 13.1736 9.77083 12.9792 9.77083C12.7847 9.77083 12.6111 9.84722 12.4583 10C12.3056 10.1528 12.2257 10.3299 12.2188 10.5312C12.2118 10.7326 12.2847 10.9097 12.4375 11.0625L13.625 12.25ZM8.375 12.25L9.5625 11.0417C9.71528 10.8889 9.78819 10.7153 9.78125 10.5208C9.77431 10.3264 9.69444 10.1528 9.54167 10C9.38889 9.84722 9.21528 9.77083 9.02083 9.77083C8.82639 9.77083 8.65278 9.84722 8.5 10L6.77083 11.7292C6.61806 11.8769 6.54167 12.0492 6.54167 12.2462C6.54167 12.4432 6.61806 12.6181 6.77083 12.7708L8.5 14.5C8.65278 14.6528 8.82639 14.7292 9.02083 14.7292C9.21528 14.7292 9.38889 14.6528 9.54167 14.5C9.69444 14.3472 9.77431 14.1701 9.78125 13.9688C9.78819 13.7674 9.71528 13.5903 9.5625 13.4375L8.375 12.25Z" fill="#6E6E6E"/>
</g>
</svg>
