<svg width="22" height="22" viewBox="0 0 22 22" fill="none" xmlns="http://www.w3.org/2000/svg">
<path d="M17.5833 11.55C17.4497 11.3979 17.3761 11.2024 17.3761 11C17.3761 10.7976 17.4497 10.6021 17.5833 10.45L18.65 9.24999C18.7675 9.11888 18.8405 8.95391 18.8585 8.77875C18.8765 8.60359 18.8385 8.42723 18.75 8.27499L17.0833 5.39166C16.9957 5.2396 16.8624 5.11906 16.7023 5.04723C16.5422 4.97541 16.3635 4.95596 16.1917 4.99166L14.625 5.30833C14.4256 5.34952 14.2181 5.31632 14.0416 5.21499C13.865 5.11367 13.7317 4.95123 13.6667 4.75833L13.1583 3.23333C13.1024 3.06781 12.9959 2.92405 12.8539 2.82236C12.7118 2.72068 12.5414 2.66621 12.3667 2.66666H9.03333C8.85161 2.65718 8.67177 2.70743 8.5213 2.80976C8.37082 2.91208 8.25798 3.06084 8.19999 3.23333L7.73333 4.75833C7.66833 4.95123 7.53497 5.11367 7.35842 5.21499C7.18187 5.31632 6.97434 5.34952 6.77499 5.30833L5.16666 4.99166C5.00379 4.96864 4.83774 4.99435 4.68945 5.06553C4.54116 5.13671 4.41725 5.25018 4.33333 5.39166L2.66666 8.27499C2.57596 8.42554 2.53518 8.6009 2.55015 8.77601C2.56511 8.95113 2.63506 9.11703 2.74999 9.24999L3.80833 10.45C3.94193 10.6021 4.01561 10.7976 4.01561 11C4.01561 11.2024 3.94193 11.3979 3.80833 11.55L2.74999 12.75C2.63506 12.883 2.56511 13.0489 2.55015 13.224C2.53518 13.3991 2.57596 13.5745 2.66666 13.725L4.33333 16.6083C4.42091 16.7604 4.55426 16.8809 4.71437 16.9528C4.87448 17.0246 5.05318 17.044 5.225 17.0083L6.79166 16.6917C6.99101 16.6505 7.19854 16.6837 7.37509 16.785C7.55164 16.8863 7.685 17.0488 7.74999 17.2417L8.25833 18.7667C8.31631 18.9391 8.42916 19.0879 8.57963 19.1902C8.73011 19.2926 8.90994 19.3428 9.09166 19.3333H12.425C12.5997 19.3338 12.7701 19.2793 12.9122 19.1776C13.0542 19.0759 13.1608 18.9322 13.2167 18.7667L13.725 17.2417C13.79 17.0488 13.9234 16.8863 14.0999 16.785C14.2764 16.6837 14.484 16.6505 14.6833 16.6917L16.25 17.0083C16.4218 17.044 16.6005 17.0246 16.7606 16.9528C16.9207 16.8809 17.0541 16.7604 17.1417 16.6083L18.8083 13.725C18.8968 13.5728 18.9348 13.3964 18.9168 13.2212C18.8989 13.0461 18.8259 12.8811 18.7083 12.75L17.5833 11.55ZM16.3417 12.6667L17.0083 13.4167L15.9417 15.2667L14.9583 15.0667C14.3581 14.944 13.7338 15.0459 13.2038 15.3532C12.6738 15.6604 12.2751 16.1515 12.0833 16.7333L11.7667 17.6667H9.63333L9.33333 16.7167C9.14154 16.1349 8.74281 15.6437 8.21283 15.3365C7.68285 15.0293 7.05851 14.9273 6.45833 15.05L5.47499 15.25L4.39166 13.4083L5.05833 12.6583C5.46829 12.2 5.69494 11.6066 5.69494 10.9917C5.69494 10.3767 5.46829 9.78335 5.05833 9.32499L4.39166 8.57499L5.45833 6.74166L6.44166 6.94166C7.04185 7.06435 7.66618 6.96239 8.19617 6.65516C8.72615 6.34792 9.12487 5.85679 9.31666 5.27499L9.63333 4.33333H11.7667L12.0833 5.28333C12.2751 5.86513 12.6738 6.35626 13.2038 6.66349C13.7338 6.97073 14.3581 7.07268 14.9583 6.94999L15.9417 6.74999L17.0083 8.59999L16.3417 9.34999C15.9363 9.80729 15.7125 10.3972 15.7125 11.0083C15.7125 11.6194 15.9363 12.2094 16.3417 12.6667ZM10.7 7.66666C10.0407 7.66666 9.39626 7.86216 8.84809 8.22843C8.29993 8.5947 7.87269 9.1153 7.6204 9.72438C7.3681 10.3335 7.30209 11.0037 7.43071 11.6503C7.55933 12.2969 7.8768 12.8908 8.34297 13.357C8.80915 13.8232 9.40309 14.1407 10.0497 14.2693C10.6963 14.3979 11.3665 14.3319 11.9756 14.0796C12.5847 13.8273 13.1053 13.4001 13.4716 12.8519C13.8378 12.3037 14.0333 11.6593 14.0333 11C14.0333 10.1159 13.6821 9.26809 13.057 8.64297C12.4319 8.01785 11.584 7.66666 10.7 7.66666ZM10.7 12.6667C10.3704 12.6667 10.0481 12.5689 9.77404 12.3858C9.49996 12.2026 9.28634 11.9423 9.1602 11.6378C9.03405 11.3333 9.00104 10.9981 9.06535 10.6748C9.12966 10.3515 9.2884 10.0546 9.52148 9.82148C9.75457 9.5884 10.0515 9.42966 10.3748 9.36535C10.6981 9.30104 11.0333 9.33405 11.3378 9.46019C11.6423 9.58634 11.9026 9.79996 12.0858 10.074C12.2689 10.3481 12.3667 10.6704 12.3667 11C12.3667 11.442 12.1911 11.8659 11.8785 12.1785C11.5659 12.4911 11.142 12.6667 10.7 12.6667Z" fill="#6E6E6E"/>
</svg>
