<svg width="22" height="22" viewBox="0 0 22 22" fill="none" xmlns="http://www.w3.org/2000/svg">
<g id="Transaction">
<g id="contract">
<mask id="mask0_957_2665" style="mask-type:alpha" maskUnits="userSpaceOnUse" x="1" y="1" width="20" height="20">
<rect id="Bounding box" x="1" y="1" width="20" height="20" fill="#D9D9D9"/>
</mask>
<g mask="url(#mask0_957_2665)">
<path id="contract_2" d="M6 19C5.44444 19 4.97222 18.8056 4.58333 18.4167C4.19444 18.0278 4 17.5556 4 17V15.5C4 15.0875 4.14687 14.7344 4.44062 14.4406C4.73437 14.1469 5.0875 14 5.5 14H6V4.5C6 4.0875 6.14687 3.73438 6.44062 3.44063C6.73438 3.14688 7.0875 3 7.5 3H16.5C16.9125 3 17.2656 3.14688 17.5594 3.44063C17.8531 3.73438 18 4.0875 18 4.5V16.75C18 17.375 17.7812 17.9062 17.3438 18.3438C16.9062 18.7812 16.375 19 15.75 19H6ZM15.7456 17.5C15.9569 17.5 16.1354 17.4281 16.2812 17.2844C16.4271 17.1406 16.5 16.9625 16.5 16.75V4.5H7.5V14H13.5C13.9125 14 14.2656 14.1469 14.5594 14.4406C14.8531 14.7344 15 15.0875 15 15.5V16.75C15 16.9625 15.0715 17.1406 15.2144 17.2844C15.3573 17.4281 15.5344 17.5 15.7456 17.5ZM9.25 8.5C9.0375 8.5 8.85938 8.42855 8.71563 8.28565C8.57188 8.14273 8.5 7.96565 8.5 7.7544C8.5 7.54313 8.57188 7.36458 8.71563 7.21875C8.85938 7.07292 9.0375 7 9.25 7H14.75C14.9625 7 15.1406 7.07145 15.2844 7.21435C15.4281 7.35727 15.5 7.53435 15.5 7.7456C15.5 7.95687 15.4281 8.13542 15.2844 8.28125C15.1406 8.42708 14.9625 8.5 14.75 8.5H9.25ZM9.25 11C9.0375 11 8.85938 10.9285 8.71563 10.7856C8.57188 10.6427 8.5 10.4656 8.5 10.2544C8.5 10.0431 8.57188 9.86458 8.71563 9.71875C8.85938 9.57292 9.0375 9.5 9.25 9.5H14.75C14.9625 9.5 15.1406 9.57145 15.2844 9.71435C15.4281 9.85727 15.5 10.0344 15.5 10.2456C15.5 10.4569 15.4281 10.6354 15.2844 10.7812C15.1406 10.9271 14.9625 11 14.75 11H9.25ZM6 17.5H13.5V15.5H5.5V17C5.5 17.1417 5.54792 17.2604 5.64375 17.3562C5.73958 17.4521 5.85833 17.5 6 17.5ZM6 17.5H5.5H13.5H6Z" fill="#636363"/>
</g>
</g>
</g>
</svg>
