<svg width="20" height="20" viewBox="0 0 20 20" fill="none" xmlns="http://www.w3.org/2000/svg">
<path d="M18.6325 12.1447C17.4464 16.9037 12.6263 19.8097 7.85856 18.6229C3.09954 17.4331 0.198204 12.613 1.38432 7.85404C2.57045 3.09504 7.3876 0.189021 12.1437 1.37586C16.9144 2.54815 19.8157 7.38279 18.6325 12.1447Z" fill="#213147"/>
<path d="M4.49384 7.4759V12.702C4.49384 13.0224 4.68017 13.3427 4.94819 13.5019L9.48126 16.1149C9.77439 16.2741 10.122 16.2741 10.4151 16.1149L14.9482 13.5019C15.2413 13.3427 15.4025 13.0224 15.4025 12.702V7.4759C15.4025 7.15555 15.2162 6.83519 14.9482 6.67608L10.413 4.06301C10.1199 3.90388 9.7723 3.90388 9.47917 4.06301L4.94608 6.67608C4.65295 6.83519 4.49384 7.15555 4.49384 7.4759Z" fill="#213147"/>
<path d="M12.0127 8.1166C12.0671 8.0098 12.199 8.0098 12.2263 8.1166L14.4645 14.2766L13.1852 15.024L11.372 10.0366C11.3448 9.98427 11.3448 9.92982 11.372 9.87749L12.0127 8.1166Z" fill="#12AAFF"/>
<path d="M10.3062 12.8633L10.9469 11.1024C10.9992 10.9956 11.1332 10.9956 11.1584 11.1024L12.7057 15.3151L11.4264 16.0626L10.3062 13.0224C10.279 12.97 10.279 12.9156 10.3062 12.8633Z" fill="#12AAFF"/>
<path d="M9.93352 4.24935C9.96074 4.24935 9.98585 4.24935 10.0131 4.27657L14.9189 7.10321C14.9712 7.13041 14.9984 7.18277 14.9984 7.26232V12.9156C14.9984 12.9679 14.9712 13.0496 14.9189 13.0747L10.0131 15.9014C9.98585 15.9286 9.96074 15.9286 9.93352 15.9286C9.9063 15.9286 9.88117 15.9286 9.85394 15.9014L4.94817 13.0747C4.89583 13.0475 4.86861 12.9952 4.86861 12.9156V7.26232C4.86861 7.20999 4.89583 7.12832 4.94817 7.10321L9.85394 4.27657C9.87908 4.24935 9.9063 4.24935 9.93352 4.24935ZM9.93352 3.4223C9.74717 3.4223 9.58594 3.47464 9.42681 3.5563L4.52103 6.38295C4.20068 6.56928 4.01434 6.88964 4.01434 7.26232V12.9156C4.01434 13.2632 4.20068 13.6087 4.52103 13.795L9.42681 16.6216C9.58594 16.7012 9.74717 16.7556 9.93352 16.7556C10.1199 16.7556 10.2811 16.7033 10.4402 16.6216L15.346 13.795C15.6663 13.6087 15.8527 13.2883 15.8527 12.9156V7.26232C15.8527 6.91477 15.6663 6.56928 15.346 6.38295L10.4653 3.5563C10.3062 3.47675 10.145 3.4223 9.95863 3.4223H9.93352Z" fill="#9DCCED"/>
<path d="M6.70697 15.022L7.15921 13.795L8.06584 14.5425L7.21366 15.3423L6.70697 15.022Z" fill="#213147"/>
<path d="M10.4381 6.86241H11.6923L11.6651 6.83728C11.7446 6.83728 11.7991 6.91686 11.7719 6.99641L8.46572 16.0626L7.18643 15.3151L10.2245 6.99641C10.2518 6.91477 10.3585 6.86241 10.4381 6.86241Z" fill="white"/>
<path d="M8.27937 6.86243H9.50635C9.58592 6.86243 9.64035 6.942 9.6131 7.02156L6.6797 15.0492L5.40039 14.3017L8.06581 6.99643C8.09301 6.91478 8.19979 6.86243 8.27937 6.86243Z" fill="white"/>
</svg>
