<svg width="20" height="20" viewBox="0 0 20 20" fill="none" xmlns="http://www.w3.org/2000/svg">
<mask id="mask0_1_2845" style="mask-type:alpha" maskUnits="userSpaceOnUse" x="0" y="0" width="20" height="20">
<rect width="20" height="20" fill="#D9D9D9"/>
</mask>
<g mask="url(#mask0_1_2845)">
<path d="M9.60482 12.6042L6.64401 9.64179C6.60316 9.60095 6.57253 9.55668 6.55211 9.509C6.53169 9.46133 6.52148 9.41319 6.52148 9.36458C6.52148 9.26736 6.55586 9.18229 6.62461 9.10938C6.69336 9.03646 6.78398 9 6.89648 9H13.1048C13.2173 9 13.3079 9.0375 13.3767 9.1125C13.4454 9.1875 13.4798 9.275 13.4798 9.375C13.4798 9.38889 13.439 9.47758 13.3573 9.64106L10.3965 12.6042C10.3409 12.6597 10.2784 12.7014 10.209 12.7292C10.1395 12.7569 10.0701 12.7708 10.0007 12.7708C9.93121 12.7708 9.86176 12.7569 9.79232 12.7292C9.72287 12.7014 9.66037 12.6597 9.60482 12.6042Z" fill="#8D8D8D"/>
</g>
</svg>
