<svg width="20" height="20" viewBox="0 0 20 20" fill="none" xmlns="http://www.w3.org/2000/svg">
<mask id="mask0_1_2880" style="mask-type:alpha" maskUnits="userSpaceOnUse" x="0" y="0" width="20" height="20">
<rect width="20" height="20" fill="#D9D9D9"/>
</mask>
<g mask="url(#mask0_1_2880)">
<path d="M9.99583 12.75C9.89583 12.75 9.80208 12.7326 9.71458 12.6979C9.62708 12.6632 9.5486 12.6111 9.47916 12.5417L5.52787 8.59038C5.3704 8.43291 5.29513 8.25348 5.30208 8.05209C5.30902 7.8507 5.38888 7.67362 5.54166 7.52084C5.69444 7.36806 5.87152 7.29167 6.07291 7.29167C6.2743 7.29167 6.45138 7.36806 6.60416 7.52084L9.99999 10.9375L13.4167 7.52084C13.5694 7.36806 13.7465 7.29514 13.9479 7.30209C14.1493 7.30903 14.3264 7.38889 14.4792 7.54167C14.6319 7.69445 14.7083 7.87153 14.7083 8.07292C14.7083 8.27431 14.6296 8.45335 14.4721 8.61005L10.5208 12.5417C10.4458 12.6111 10.3646 12.6632 10.2771 12.6979C10.1896 12.7326 10.0958 12.75 9.99583 12.75Z" fill="#8D8D8D"/>
</g>
</svg>
