<svg width="20" height="20" viewBox="0 0 20 20" fill="none" xmlns="http://www.w3.org/2000/svg">
<g id="arrow_left_alt">
<mask id="mask0_957_2632" style="mask-type:alpha" maskUnits="userSpaceOnUse" x="0" y="0" width="20" height="20">
<rect id="Bounding box" width="20" height="20" fill="#D9D9D9"/>
</mask>
<g mask="url(#mask0_957_2632)">
<path id="arrow_left_alt_2" d="M6.87484 10.7498L8.5415 12.4165C8.69428 12.5693 8.77067 12.7464 8.77067 12.9478C8.77067 13.1491 8.6976 13.3262 8.55146 13.479C8.39205 13.6318 8.21164 13.7082 8.01025 13.7082C7.80887 13.7082 7.63178 13.6318 7.479 13.479L4.52067 10.5207C4.36789 10.3729 4.2915 10.2006 4.2915 10.0036C4.2915 9.80666 4.36789 9.63178 4.52067 9.479L7.479 6.52067C7.63178 6.36789 7.80887 6.2915 8.01025 6.2915C8.21164 6.2915 8.39205 6.36789 8.55146 6.52067C8.6976 6.67345 8.77067 6.85053 8.77067 7.05192C8.77067 7.25331 8.69428 7.43039 8.5415 7.58317L6.87484 9.24984H15.2488C15.4616 9.24984 15.64 9.32129 15.7839 9.46419C15.9279 9.60711 15.9998 9.78419 15.9998 9.99544C15.9998 10.2067 15.9279 10.3853 15.7839 10.5311C15.64 10.6769 15.4616 10.7498 15.2488 10.7498H6.87484Z" fill="#B8B8B8"/>
</g>
</g>
</svg>
