<svg width="20" height="20" viewBox="0 0 20 20" fill="none" xmlns="http://www.w3.org/2000/svg">
<g id="arrow_right_alt">
<mask id="mask0_957_2636" style="mask-type:alpha" maskUnits="userSpaceOnUse" x="0" y="0" width="20" height="20">
<rect id="Bounding box" width="20" height="20" fill="#D9D9D9"/>
</mask>
<g mask="url(#mask0_957_2636)">
<path id="arrow_right_alt_2" d="M13.125 10.7498H4.75102C4.53823 10.7498 4.35986 10.6784 4.21592 10.5355C4.07197 10.3926 4 10.2155 4 10.0042C4 9.79297 4.07197 9.61442 4.21592 9.46859C4.35986 9.32275 4.53823 9.24984 4.75102 9.24984H13.125L11.4583 7.58317C11.3056 7.43039 11.2292 7.25331 11.2292 7.05192C11.2292 6.85053 11.3022 6.67345 11.4484 6.52067C11.6078 6.36789 11.7882 6.2915 11.9896 6.2915C12.191 6.2915 12.3681 6.36789 12.5208 6.52067L15.4861 9.48594C15.5509 9.55076 15.6007 9.62692 15.6354 9.71442C15.6701 9.80192 15.6875 9.89567 15.6875 9.99567C15.6875 10.0957 15.6701 10.1894 15.6354 10.2769C15.6007 10.3644 15.5486 10.4457 15.4792 10.5207L12.5208 13.479C12.3681 13.6318 12.1944 13.7047 12 13.6978C11.8056 13.6908 11.6286 13.6109 11.4692 13.4582C11.3231 13.3054 11.25 13.1283 11.25 12.9269C11.25 12.7255 11.3264 12.5484 11.4792 12.3957L13.125 10.7498Z" fill="#B8B8B8"/>
</g>
</g>
</svg>
