<svg width="20" height="20" viewBox="0 0 20 20" fill="none" xmlns="http://www.w3.org/2000/svg">
<path d="M18.6325 12.1447C17.4464 16.9037 12.6263 19.8097 7.85856 18.6229C3.09954 17.4331 0.198204 12.613 1.38432 7.85404C2.57045 3.09504 7.3876 0.189021 12.1437 1.37586C16.9144 2.54815 19.8157 7.38279 18.6325 12.1447Z" fill="#E84142"/>
<path d="M5.73871 13.6613H7.46375C7.86998 13.6613 8.07304 13.6613 8.25427 13.611C8.453 13.5521 8.63422 13.4473 8.78487 13.3032C8.92329 13.1712 9.02315 12.9965 9.22022 12.6516L9.22602 12.6415L11.4634 8.68647C11.6621 8.33927 11.7604 8.16456 11.804 7.98111C11.8521 7.7824 11.8521 7.57278 11.804 7.37407C11.7607 7.19216 11.6615 7.01883 11.466 6.67723L11.4657 6.67656L11.4612 6.66876L10.5856 5.1402C10.4043 4.82138 10.3126 4.66198 10.1968 4.60303C10.0724 4.53971 9.92389 4.53971 9.79944 4.60303C9.68369 4.66198 9.59195 4.82138 9.41073 5.1402L5.15127 12.648C4.9722 12.9625 4.88267 13.1197 4.88922 13.2486C4.89798 13.3883 4.97004 13.515 5.08795 13.5914C5.19715 13.6613 5.3762 13.6613 5.73871 13.6613Z" fill="white"/>
<path d="M14.2921 13.6615H11.8202C11.4555 13.6615 11.2721 13.6615 11.1651 13.5916C11.0472 13.5152 10.9751 13.3864 10.9664 13.2466C10.9599 13.1188 11.0501 12.963 11.2307 12.6512L11.235 12.6439L12.4687 10.5258C12.65 10.2135 12.7417 10.0585 12.8553 9.99953C12.9797 9.93619 13.126 9.93619 13.2505 9.99953C13.3632 10.0569 13.4511 10.2055 13.625 10.4998L13.6392 10.5236L14.8773 12.6417L14.8952 12.6725C15.0668 12.9687 15.1544 13.1198 15.1481 13.2444C15.1415 13.3842 15.0673 13.513 14.9494 13.5895C14.8402 13.6615 14.6567 13.6615 14.2921 13.6615Z" fill="white"/>
</svg>
