<svg width="20" height="20" viewBox="0 0 20 20" fill="none" xmlns="http://www.w3.org/2000/svg">
<mask id="mask0_8_4707" style="mask-type:alpha" maskUnits="userSpaceOnUse" x="0" y="0" width="20" height="20">
<rect width="20" height="20" fill="#D9D9D9"/>
</mask>
<g mask="url(#mask0_8_4707)">
<path d="M4.5 18C4.0875 18 3.73437 17.8507 3.44062 17.5521C3.14687 17.2535 3 16.9028 3 16.5V5.5C3 5.09722 3.14687 4.74653 3.44062 4.44792C3.73437 4.14931 4.0875 4 4.5 4H6V2.75C6 2.5375 6.07145 2.35937 6.21435 2.21562C6.35727 2.07187 6.53435 2 6.7456 2C6.95687 2 7.13542 2.07187 7.28125 2.21562C7.42708 2.35937 7.5 2.5375 7.5 2.75V4H12.5V2.75C12.5 2.5375 12.5715 2.35937 12.7144 2.21562C12.8573 2.07187 13.0344 2 13.2456 2C13.4569 2 13.6354 2.07187 13.7812 2.21562C13.9271 2.35937 14 2.5375 14 2.75V4H15.5C15.9125 4 16.2656 4.14931 16.5594 4.44792C16.8531 4.74653 17 5.09722 17 5.5V16.5C17 16.9028 16.8531 17.2535 16.5594 17.5521C16.2656 17.8507 15.9125 18 15.5 18H4.5ZM4.5 16.5H15.5V9H4.5V16.5ZM4.5 7.5H15.5V5.5H4.5V7.5Z" fill="#1F1F1F"/>
</g>
</svg>
