<svg width="20" height="20" viewBox="0 0 20 20" fill="none" xmlns="http://www.w3.org/2000/svg">
    <mask id="mask0_8_2786" style="mask-type:alpha" maskUnits="userSpaceOnUse" x="0" y="0" width="20" height="20">
        <rect width="20" height="20" fill="#D9D9D9" />
    </mask>
    <g mask="url(#mask0_8_2786)">
        <path
            d="M8.10421 12.1431L14.2438 6.00355C14.4185 5.82758 14.6235 5.73959 14.8588 5.73959C15.0939 5.73959 15.2996 5.82758 15.4757 6.00355C15.6516 6.17966 15.7396 6.38473 15.7396 6.61876C15.7396 6.85293 15.6544 7.05529 15.4838 7.22584L8.73067 13.9915C8.55581 14.1674 8.35081 14.2554 8.11567 14.2554C7.88039 14.2554 7.6747 14.1674 7.49859 13.9915L4.52942 11.0223C4.35345 10.8462 4.26463 10.6417 4.26296 10.4088C4.2613 10.1758 4.34845 9.97133 4.52442 9.79522C4.70053 9.61925 4.90623 9.53126 5.1415 9.53126C5.37664 9.53126 5.57998 9.61925 5.7515 9.79522L8.10421 12.1431Z"
            fill="currentColor" />
    </g>
</svg>