<svg width="21" height="20" viewBox="0 0 21 20" fill="none" xmlns="http://www.w3.org/2000/svg">
<g clip-path="url(#clip0_18_221)">
<mask id="mask0_18_221" style="mask-type:alpha" maskUnits="userSpaceOnUse" x="0" y="0" width="21" height="20">
<rect x="0.5" width="20" height="20" fill="#D9D9D9"/>
</mask>
<g mask="url(#mask0_18_221)">
<path d="M8.60421 12.143L14.7438 6.00346C14.9185 5.82749 15.1235 5.7395 15.3588 5.7395C15.5939 5.7395 15.7996 5.82749 15.9757 6.00346C16.1516 6.17957 16.2396 6.38464 16.2396 6.61867C16.2396 6.85284 16.1544 7.0552 15.9838 7.22575L9.23067 13.9914C9.05581 14.1673 8.85081 14.2553 8.61567 14.2553C8.38039 14.2553 8.1747 14.1673 7.99859 13.9914L5.02942 11.0222C4.85345 10.8461 4.76463 10.6416 4.76296 10.4087C4.7613 10.1758 4.84845 9.97124 5.02442 9.79513C5.20053 9.61916 5.40623 9.53117 5.6415 9.53117C5.87664 9.53117 6.07998 9.61916 6.2515 9.79513L8.60421 12.143Z" fill="white"/>
</g>
</g>
<defs>
<clipPath id="clip0_18_221">
<rect width="20" height="20" fill="white" transform="translate(0.5)"/>
</clipPath>
</defs>
</svg>
