<svg width="20" height="20" viewBox="0 0 20 20" fill="none" xmlns="http://www.w3.org/2000/svg">
<g id="chevron_right">
<mask id="mask0_3_650" style="mask-type:alpha" maskUnits="userSpaceOnUse" x="0" y="0" width="20" height="20">
<rect id="Bounding box" width="20" height="20" fill="currentColor"/>
</mask>
<g mask="url(#mask0_3_650)">
<path id="chevron_right_2" d="M10.875 10L7.45835 6.58334C7.30558 6.43056 7.22919 6.25348 7.22919 6.05209C7.22919 5.8507 7.30558 5.67362 7.45835 5.52084C7.61113 5.36806 7.78821 5.29167 7.9896 5.29167C8.19099 5.29167 8.37042 5.37041 8.5279 5.52788L12.4792 9.47917C12.5486 9.55417 12.6007 9.63542 12.6354 9.72292C12.6702 9.81042 12.6875 9.90417 12.6875 10.0042C12.6875 10.1042 12.6702 10.1979 12.6354 10.2854C12.6007 10.3729 12.5486 10.4514 12.4792 10.5208L8.5279 14.4721C8.37042 14.6296 8.19446 14.7049 8.00002 14.6979C7.80558 14.691 7.63196 14.6111 7.47919 14.4583C7.32641 14.3056 7.25002 14.1285 7.25002 13.9271C7.25002 13.7257 7.32641 13.5486 7.47919 13.3958L10.875 10Z" fill="currentColor"/>
</g>
</g>
</svg>
