<svg width="20" height="20" viewBox="0 0 20 20" fill="none" xmlns="http://www.w3.org/2000/svg">
<mask id="mask0_47_190" style="mask-type:alpha" maskUnits="userSpaceOnUse" x="0" y="0" width="20" height="20">
<rect width="20" height="20" fill="currentColor"/>
</mask>
<g mask="url(#mask0_47_190)">
<path d="M9.125 10L12.5417 13.4167C12.6944 13.5694 12.7708 13.7465 12.7708 13.9479C12.7708 14.1493 12.6944 14.3264 12.5417 14.4792C12.3889 14.6319 12.2118 14.7083 12.0104 14.7083C11.809 14.7083 11.6296 14.6296 11.4721 14.4721L7.52083 10.5208C7.45139 10.4458 7.39931 10.3646 7.36458 10.2771C7.32986 10.1896 7.3125 10.0958 7.3125 9.99584C7.3125 9.89584 7.32986 9.80209 7.36458 9.71459C7.39931 9.62709 7.45139 9.54862 7.52083 9.47917L11.4721 5.52792C11.6296 5.37042 11.809 5.29167 12.0104 5.29167C12.2118 5.29167 12.3889 5.36806 12.5417 5.52084C12.6944 5.67362 12.7708 5.8507 12.7708 6.05209C12.7708 6.25348 12.6944 6.43056 12.5417 6.58334L9.125 10Z" fill="currentColor"/>
</g>
</svg>
