<svg width="20" height="20" viewBox="0 0 20 20" fill="none" xmlns="http://www.w3.org/2000/svg">
<g id="close">
<mask id="mask0_2_4213" style="mask-type:alpha" maskUnits="userSpaceOnUse" x="0" y="0" width="20" height="20">
<rect id="Bounding box" width="20" height="20" fill="#D9D9D9"/>
</mask>
<g mask="url(#mask0_2_4213)">
<path id="close_2" d="M10.0001 11.0626L6.58346 14.4792C6.43068 14.632 6.25707 14.7049 6.06263 14.698C5.86818 14.6911 5.69457 14.6112 5.54179 14.4584C5.38902 14.3056 5.31263 14.1286 5.31263 13.9272C5.31263 13.7258 5.38902 13.5487 5.54179 13.3959L8.93763 10.0001L5.52096 6.58341C5.36818 6.43064 5.29527 6.25355 5.30221 6.05216C5.30916 5.85078 5.38902 5.67369 5.54179 5.52091C5.69457 5.36814 5.87166 5.29175 6.07304 5.29175C6.27443 5.29175 6.45152 5.36814 6.60429 5.52091L10.0001 8.93758L13.4168 5.52091C13.5696 5.36814 13.7467 5.29175 13.948 5.29175C14.1494 5.29175 14.3265 5.36814 14.4793 5.52091C14.6321 5.67369 14.7085 5.85078 14.7085 6.05216C14.7085 6.25355 14.6321 6.43064 14.4793 6.58341L11.0626 10.0001L14.4793 13.4167C14.6321 13.5695 14.7085 13.7431 14.7085 13.9376C14.7085 14.132 14.6321 14.3056 14.4793 14.4584C14.3265 14.6112 14.1494 14.6876 13.948 14.6876C13.7467 14.6876 13.5696 14.6112 13.4168 14.4584L10.0001 11.0626Z" fill="#1F1F1F"/>
</g>
</g>
</svg>
