<svg width="20" height="20" viewBox="0 0 20 20" fill="none" xmlns="http://www.w3.org/2000/svg">
<path d="M18.6325 12.1447C17.4464 16.9037 12.6263 19.8097 7.85856 18.6229C3.09954 17.4331 0.198204 12.613 1.38432 7.85404C2.57045 3.09504 7.3876 0.189021 12.1437 1.37586C16.9144 2.54815 19.8157 7.38279 18.6325 12.1447Z" fill="#ECEFF0"/>
<path d="M10.1114 12.1556C10.0769 12.1673 10.0572 12.1373 10.0337 12.1235C8.88254 11.4441 7.73265 10.7642 6.58403 10.0839C6.5729 10.0782 6.56134 10.0735 6.5495 10.0697V10.0545L6.56988 10.0428C6.59879 10.0352 6.62728 10.0259 6.65517 10.0151L9.36788 8.78086C9.60963 8.6707 9.85137 8.56226 10.0931 8.45312H10.1104C10.1104 8.48766 10.1104 8.51839 10.1104 8.55121C10.1113 9.75279 10.1117 10.9543 10.1114 12.1556Z" fill="#343535"/>
<path d="M10.1131 8.45396H10.0959C10.0959 8.41942 10.0993 8.38489 10.0993 8.34862C10.0993 6.999 10.0993 5.64927 10.0993 4.2994C10.0953 4.26473 10.0977 4.22965 10.1062 4.1958H10.1135C10.2554 4.40542 10.3791 4.62645 10.5096 4.84298C11.5438 6.55845 12.5774 8.27367 13.6105 9.98867C13.6205 10.0056 13.6284 10.0232 13.6374 10.0419C13.6082 10.0356 13.5794 10.0272 13.5514 10.0166C13.3618 9.931 13.1715 9.84398 12.9837 9.7566C12.6894 9.62191 12.3951 9.48747 12.1006 9.35325L10.6819 8.71053C10.493 8.62351 10.3031 8.53891 10.1131 8.45396Z" fill="#2F3030"/>
<path d="M10.1074 4.194C10.0988 4.22782 10.0965 4.26293 10.1004 4.2976C10.1004 5.64722 10.1004 6.99695 10.1004 8.3468C10.1004 8.38133 10.0984 8.41589 10.097 8.45213C9.85524 8.56126 9.61351 8.66971 9.37175 8.77986L6.65904 10.0142C6.63115 10.025 6.60266 10.0342 6.57373 10.0418C6.65213 9.87878 6.75402 9.73095 6.84691 9.57487C7.92324 7.78573 9.0004 5.99695 10.0783 4.20851C10.0855 4.1986 10.0932 4.18913 10.1015 4.18018L10.1074 4.194Z" fill="#828384"/>
<path d="M10.1131 8.45398C10.3031 8.53894 10.4931 8.62358 10.6827 8.70922L12.1013 9.35191C12.396 9.48591 12.6904 9.62036 12.9844 9.75527C13.1737 9.84196 13.3643 9.92967 13.5521 10.0153C13.5801 10.0258 13.6089 10.0343 13.6381 10.0405C13.6727 10.0837 13.6216 10.0854 13.606 10.0948C13.3115 10.2709 13.0155 10.4446 12.7202 10.6193C11.8727 11.1208 11.0255 11.6221 10.1784 12.1233C10.157 12.1358 10.1338 12.1449 10.1114 12.1556C10.1114 10.9545 10.1114 9.75342 10.1114 8.55209C10.1118 8.51927 10.1128 8.48678 10.1131 8.45398Z" fill="#131313"/>
<path d="M10.0993 12.8379L12.3181 11.53C12.7418 11.28 13.1652 11.0297 13.5883 10.7792L13.6267 10.7582C13.6305 10.7927 13.6066 10.811 13.5921 10.831C12.6252 12.1942 11.6582 13.557 10.6912 14.9193C10.5082 15.1776 10.3255 15.4373 10.1407 15.6936C10.131 15.707 10.1162 15.7702 10.0865 15.7032C10.11 15.6832 10.0996 15.6562 10.0996 15.6342C10.0998 14.7017 10.0997 13.7696 10.0993 12.8379Z" fill="#2F3030"/>
<path d="M10.0991 12.8381C10.0991 13.7698 10.0991 14.7014 10.0991 15.6326C10.0991 15.6565 10.1095 15.6834 10.086 15.7017C10.0366 15.672 10.0152 15.6188 9.98237 15.575C8.86112 13.9956 7.74048 12.416 6.62039 10.8361C6.60624 10.8161 6.59312 10.7947 6.57861 10.7726C6.60761 10.7556 6.62317 10.7788 6.64008 10.7888C7.77397 11.4583 8.90764 12.1284 10.0411 12.7991C10.0621 12.8122 10.0801 12.8256 10.0991 12.8381Z" fill="#828384"/>
<path d="M10.1076 4.19402L10.0993 4.18125C10.1145 4.17158 10.1124 4.18574 10.1149 4.19298L10.1076 4.19402Z" fill="#393939"/>
</svg>
