<svg width="20" height="20" viewBox="0 0 20 20" fill="none" xmlns="http://www.w3.org/2000/svg">
<g id="help">
<mask id="mask0_1_2873" style="mask-type:alpha" maskUnits="userSpaceOnUse" x="0" y="0" width="20" height="20">
<rect id="Bounding box" width="20" height="20" fill="#D9D9D9"/>
</mask>
<g mask="url(#mask0_1_2873)">
<path id="help_2" d="M9.99951 15.0001C10.2773 15.0001 10.5134 14.9029 10.7078 14.7085C10.9023 14.514 10.9995 14.2779 10.9995 14.0001C10.9995 13.7223 10.9023 13.4862 10.7078 13.2918C10.5134 13.0973 10.2773 13.0001 9.99951 13.0001C9.72173 13.0001 9.48562 13.0973 9.29118 13.2918C9.09673 13.4862 8.99951 13.7223 8.99951 14.0001C8.99951 14.2779 9.09673 14.514 9.29118 14.7085C9.48562 14.9029 9.72173 15.0001 9.99951 15.0001ZM9.24951 11.8126H10.7703C10.7703 11.2987 10.8155 10.9341 10.9058 10.7189C10.996 10.5036 11.2148 10.2293 11.562 9.89596C12.0481 9.42373 12.3849 9.02096 12.5724 8.68762C12.7599 8.35429 12.8537 7.98623 12.8537 7.58346C12.8537 6.81957 12.5933 6.19804 12.0724 5.71887C11.5516 5.23971 10.8884 5.00012 10.0828 5.00012C9.37451 5.00012 8.75993 5.18762 8.2391 5.56262C7.71826 5.93762 7.35368 6.44457 7.14535 7.08346L8.49951 7.64596C8.62451 7.25707 8.82243 6.95498 9.09326 6.73971C9.3641 6.52443 9.68007 6.41679 10.0412 6.41679C10.4301 6.41679 10.7495 6.5279 10.9995 6.75012C11.2495 6.97234 11.3745 7.26401 11.3745 7.62512C11.3745 7.94457 11.2669 8.22929 11.0516 8.47929C10.8363 8.72929 10.5967 8.97234 10.3328 9.20846C9.84673 9.6529 9.54465 10.0175 9.4266 10.3022C9.30854 10.5869 9.24951 11.0904 9.24951 11.8126ZM9.99951 18.0001C8.90229 18.0001 7.86757 17.7918 6.89535 17.3751C5.92312 16.9585 5.07243 16.3855 4.34326 15.6564C3.61409 14.9272 3.04118 14.0765 2.62451 13.1043C2.20785 12.1321 1.99951 11.0973 1.99951 10.0001C1.99951 8.88901 2.20785 7.85082 2.62451 6.88554C3.04118 5.92026 3.61409 5.07304 4.34326 4.34387C5.07243 3.61471 5.92312 3.04179 6.89535 2.62512C7.86757 2.20846 8.90229 2.00012 9.99951 2.00012C11.1106 2.00012 12.1488 2.20846 13.1141 2.62512C14.0794 3.04179 14.9266 3.61471 15.6558 4.34387C16.3849 5.07304 16.9578 5.92026 17.3745 6.88554C17.7912 7.85082 17.9995 8.88901 17.9995 10.0001C17.9995 11.0973 17.7912 12.1321 17.3745 13.1043C16.9578 14.0765 16.3849 14.9272 15.6558 15.6564C14.9266 16.3855 14.0794 16.9585 13.1141 17.3751C12.1488 17.7918 11.1106 18.0001 9.99951 18.0001ZM9.99951 16.5001C11.8051 16.5001 13.3398 15.8682 14.6037 14.6043C15.8676 13.3404 16.4995 11.8057 16.4995 10.0001C16.4995 8.19457 15.8676 6.65984 14.6037 5.39596C13.3398 4.13207 11.8051 3.50012 9.99951 3.50012C8.19396 3.50012 6.65923 4.13207 5.39535 5.39596C4.13146 6.65984 3.49951 8.19457 3.49951 10.0001C3.49951 11.8057 4.13146 13.3404 5.39535 14.6043C6.65923 15.8682 8.19396 16.5001 9.99951 16.5001Z" fill="#A8A8A8"/>
</g>
</g>
</svg>
