<svg width="20" height="20" viewBox="0 0 20 20" fill="none" xmlns="http://www.w3.org/2000/svg">
<path d="M3.6248 4.6498C3.34147 4.6498 3.10397 4.5498 2.9123 4.3498C2.72064 4.1498 2.6248 3.90814 2.6248 3.6248C2.6248 3.34147 2.72064 3.10397 2.9123 2.9123C3.10397 2.72064 3.34147 2.6248 3.6248 2.6248C3.90814 2.6248 4.1498 2.72064 4.3498 2.9123C4.5498 3.10397 4.6498 3.34147 4.6498 3.6248C4.6498 3.90814 4.5498 4.1498 4.3498 4.3498C4.1498 4.5498 3.90814 4.6498 3.6248 4.6498ZM7.6748 2.3248C7.39147 2.3248 7.1498 2.2248 6.9498 2.0248C6.7498 1.8248 6.6498 1.58314 6.6498 1.2998C6.6498 1.01647 6.7498 0.778971 6.9498 0.587305C7.1498 0.395638 7.39147 0.299805 7.6748 0.299805C7.95814 0.299805 8.19564 0.395638 8.38731 0.587305C8.57897 0.778971 8.6748 1.01647 8.6748 1.2998C8.6748 1.58314 8.57897 1.8248 8.38731 2.0248C8.19564 2.2248 7.95814 2.3248 7.6748 2.3248ZM12.3248 2.3248C12.0415 2.3248 11.804 2.2248 11.6123 2.0248C11.4206 1.8248 11.3248 1.58314 11.3248 1.2998C11.3248 1.01647 11.4206 0.778971 11.6123 0.587305C11.804 0.395638 12.0415 0.299805 12.3248 0.299805C12.6081 0.299805 12.8498 0.395638 13.0498 0.587305C13.2498 0.778971 13.3498 1.01647 13.3498 1.2998C13.3498 1.58314 13.2498 1.8248 13.0498 2.0248C12.8498 2.2248 12.6081 2.3248 12.3248 2.3248ZM16.3748 4.6498C16.0915 4.6498 15.8498 4.5498 15.6498 4.3498C15.4498 4.1498 15.3498 3.90814 15.3498 3.6248C15.3498 3.34147 15.4498 3.0998 15.6498 2.8998C15.8498 2.6998 16.0915 2.5998 16.3748 2.5998C16.6581 2.5998 16.8956 2.6998 17.0873 2.8998C17.279 3.0998 17.3748 3.34147 17.3748 3.6248C17.3748 3.90814 17.279 4.1498 17.0873 4.3498C16.8956 4.5498 16.6581 4.6498 16.3748 4.6498ZM18.6998 8.6748C18.4165 8.6748 18.1748 8.57897 17.9748 8.38731C17.7748 8.19564 17.6748 7.95814 17.6748 7.6748C17.6748 7.39147 17.7748 7.15397 17.9748 6.9623C18.1748 6.77064 18.4165 6.6748 18.6998 6.6748C18.9831 6.6748 19.2206 6.77064 19.4123 6.9623C19.604 7.15397 19.6998 7.39147 19.6998 7.6748C19.6998 7.95814 19.604 8.19564 19.4123 8.38731C19.2206 8.57897 18.9831 8.6748 18.6998 8.6748ZM18.6998 13.3498C18.4165 13.3498 18.1748 13.2498 17.9748 13.0498C17.7748 12.8498 17.6748 12.6081 17.6748 12.3248C17.6748 12.0415 17.7748 11.804 17.9748 11.6123C18.1748 11.4206 18.4165 11.3248 18.6998 11.3248C18.9831 11.3248 19.2206 11.4206 19.4123 11.6123C19.604 11.804 19.6998 12.0415 19.6998 12.3248C19.6998 12.6081 19.604 12.8498 19.4123 13.0498C19.2206 13.2498 18.9831 13.3498 18.6998 13.3498ZM16.3748 17.3748C16.0915 17.3748 15.8498 17.279 15.6498 17.0873C15.4498 16.8956 15.3498 16.6581 15.3498 16.3748C15.3498 16.0915 15.4498 15.8498 15.6498 15.6498C15.8498 15.4498 16.0915 15.3498 16.3748 15.3498C16.6581 15.3498 16.8956 15.4498 17.0873 15.6498C17.279 15.8498 17.3748 16.0915 17.3748 16.3748C17.3748 16.6581 17.279 16.8956 17.0873 17.0873C16.8956 17.279 16.6581 17.3748 16.3748 17.3748ZM12.3248 19.6998C12.0415 19.6998 11.804 19.604 11.6123 19.4123C11.4206 19.2206 11.3248 18.9831 11.3248 18.6998C11.3248 18.4165 11.4206 18.1748 11.6123 17.9748C11.804 17.7748 12.0415 17.6748 12.3248 17.6748C12.6081 17.6748 12.8498 17.7748 13.0498 17.9748C13.2498 18.1748 13.3498 18.4165 13.3498 18.6998C13.3498 18.9831 13.2498 19.2206 13.0498 19.4123C12.8498 19.604 12.6081 19.6998 12.3248 19.6998ZM7.6748 19.6998C7.39147 19.6998 7.1498 19.604 6.9498 19.4123C6.7498 19.2206 6.6498 18.9831 6.6498 18.6998C6.6498 18.4165 6.7498 18.1748 6.9498 17.9748C7.1498 17.7748 7.39147 17.6748 7.6748 17.6748C7.95814 17.6748 8.19564 17.7748 8.38731 17.9748C8.57897 18.1748 8.6748 18.4165 8.6748 18.6998C8.6748 18.9831 8.57897 19.2206 8.38731 19.4123C8.19564 19.604 7.95814 19.6998 7.6748 19.6998ZM3.6248 17.3498C3.34147 17.3498 3.10397 17.254 2.9123 17.0623C2.72064 16.8706 2.6248 16.6331 2.6248 16.3498C2.6248 16.0665 2.72064 15.829 2.9123 15.6373C3.10397 15.4456 3.34147 15.3498 3.6248 15.3498C3.90814 15.3498 4.14564 15.4456 4.3373 15.6373C4.52897 15.829 4.6248 16.0665 4.6248 16.3498C4.6248 16.6331 4.52897 16.8706 4.3373 17.0623C4.14564 17.254 3.90814 17.3498 3.6248 17.3498ZM1.2998 13.3248C1.01647 13.3248 0.778971 13.2248 0.587305 13.0248C0.395638 12.8248 0.299805 12.5831 0.299805 12.2998C0.299805 12.0165 0.395638 11.779 0.587305 11.5873C0.778971 11.3956 1.01647 11.2998 1.2998 11.2998C1.58314 11.2998 1.8248 11.3956 2.0248 11.5873C2.2248 11.779 2.3248 12.0165 2.3248 12.2998C2.3248 12.5831 2.2248 12.8248 2.0248 13.0248C1.8248 13.2248 1.58314 13.3248 1.2998 13.3248ZM1.2998 8.6748C1.01647 8.6748 0.778971 8.57897 0.587305 8.38731C0.395638 8.19564 0.299805 7.95814 0.299805 7.6748C0.299805 7.39147 0.395638 7.1498 0.587305 6.9498C0.778971 6.7498 1.01647 6.6498 1.2998 6.6498C1.58314 6.6498 1.8248 6.7498 2.0248 6.9498C2.2248 7.1498 2.3248 7.39147 2.3248 7.6748C2.3248 7.95814 2.2248 8.19564 2.0248 8.38731C1.8248 8.57897 1.58314 8.6748 1.2998 8.6748Z" fill="#A8A8A8"/>
</svg>
