<svg width="20" height="20" viewBox="0 0 20 20" fill="none" xmlns="http://www.w3.org/2000/svg">
<g id="tabler:access-point-off">
<path id="Vector" d="M2.5 2.5L17.5 17.5M12.3567 7.64333C12.9818 8.26831 13.3331 9.11602 13.3333 10M14.7142 5.28583C15.6724 6.24357 16.316 7.47051 16.5594 8.80323C16.8029 10.136 16.6345 11.5112 16.0767 12.7458M7.64 12.3567C7.0151 11.7316 6.66405 10.8839 6.66405 10C6.66405 9.11612 7.0151 8.26843 7.64 7.64333M5.28083 14.7142C4.66174 14.0951 4.17065 13.3602 3.83559 12.5513C3.50054 11.7424 3.32809 10.8755 3.32809 10C3.32809 9.12449 3.50054 8.25756 3.83559 7.4487C4.17065 6.63984 4.66174 5.90489 5.28083 5.28583" stroke="#F32E51" stroke-width="1.5" stroke-linecap="round" stroke-linejoin="round"/>
</g>
</svg>
