<svg width="20" height="20" viewBox="0 0 20 20" fill="none" xmlns="http://www.w3.org/2000/svg">
<path d="M10 18.8889C14.9092 18.8889 18.8889 14.9092 18.8889 9.99997C18.8889 5.09077 14.9092 1.11108 10 1.11108C5.0908 1.11108 1.11111 5.09077 1.11111 9.99997C1.11111 14.9092 5.0908 18.8889 10 18.8889Z" fill="#FF0420"/>
<path fill-rule="evenodd" clip-rule="evenodd" d="M6.10595 11.9838C6.48761 12.246 6.94384 12.377 7.40633 12.3573C8.0467 12.3573 8.55757 12.2084 8.93979 11.9105C9.3223 11.6082 9.59126 11.1525 9.74666 10.5435C9.84002 10.1701 9.91999 9.78555 9.98659 9.38986C10.0065 9.27306 10.0176 9.15495 10.0199 9.03651C10.0279 8.75191 9.94646 8.472 9.78679 8.2362C9.62855 8.00738 9.4057 7.83091 9.1467 7.7294C8.85499 7.60982 8.5419 7.55082 8.22657 7.55598C6.9683 7.55598 6.18819 8.16729 5.88595 9.38986C5.77921 9.8384 5.69697 10.223 5.63919 10.5435C5.61899 10.6625 5.60788 10.7829 5.6059 10.9036C5.59537 11.1107 5.63521 11.3174 5.7223 11.5056C5.80939 11.6938 5.94117 11.8579 6.10595 11.9838ZM8.1335 11.177C7.95619 11.3251 7.73077 11.4034 7.49968 11.397C7.07306 11.397 6.85959 11.1925 6.85959 10.7835C6.8593 10.731 6.86215 10.6784 6.86757 10.6262C6.87184 10.5851 6.87808 10.5441 6.88606 10.5034C6.96604 10.0722 7.04601 9.70769 7.12628 9.40982C7.17664 9.1516 7.30728 8.91589 7.49968 8.73631C7.67984 8.58875 7.90695 8.51069 8.13977 8.51629C8.56213 8.51618 8.7733 8.71844 8.7733 9.12306C8.7733 9.21926 8.76448 9.31529 8.74655 9.40982C8.69333 9.72118 8.61564 10.0857 8.51346 10.5034C8.4625 10.763 8.3293 10.9993 8.1335 11.177Z" fill="white"/>
<path fill-rule="evenodd" clip-rule="evenodd" d="M10.2652 12.2803C10.2849 12.2884 10.3059 12.2919 10.3272 12.2907L11.2343 12.2909C11.2565 12.2905 11.2784 12.2865 11.2989 12.2793C11.3214 12.2713 11.3424 12.2595 11.3609 12.2442C11.3996 12.2149 11.4258 12.172 11.4338 12.1241L11.7406 10.6637H12.6408C13.2231 10.6637 13.6811 10.5415 14.0144 10.297C14.3738 10.0175 14.6143 9.61256 14.688 9.16327C14.7139 9.04947 14.7273 8.93318 14.7282 8.81645C14.7361 8.64194 14.6983 8.46838 14.6189 8.31285C14.5394 8.1573 14.4208 8.02518 14.2745 7.92945C13.919 7.70921 13.5052 7.60223 13.0874 7.62272H11.3137C11.2796 7.62323 11.2465 7.63221 11.2172 7.64858C11.2067 7.65454 11.1964 7.66147 11.1868 7.66934C11.1483 7.69865 11.1222 7.74158 11.1139 7.78943L10.1938 12.124C10.1844 12.1651 10.1915 12.2082 10.2137 12.2441C10.2254 12.257 10.2393 12.2676 10.2547 12.2755L10.2652 12.2803ZM13.1748 9.58994C13.0336 9.69321 12.8625 9.74707 12.6878 9.74323H11.921L12.1744 8.54963H12.9747C13.1121 8.53612 13.2502 8.57412 13.3615 8.65629C13.4004 8.69392 13.4312 8.73969 13.4508 8.79041C13.4702 8.84114 13.4784 8.89554 13.4747 8.94978C13.4739 9.01694 13.4671 9.08387 13.4548 9.14985C13.4195 9.32641 13.3196 9.48338 13.1748 9.58994Z" fill="white"/>
</svg>
