<svg width="20" height="20" viewBox="0 0 20 20" fill="none" xmlns="http://www.w3.org/2000/svg">
<path d="M5.28586 4.115C5.36334 4.1924 5.4248 4.2843 5.46674 4.38547C5.50868 4.48663 5.53026 4.59507 5.53026 4.70459C5.53026 4.8141 5.50868 4.92254 5.46674 5.0237C5.4248 5.12487 5.36334 5.21677 5.28586 5.29417C4.03539 6.54485 3.3329 8.24101 3.3329 10.0096C3.3329 11.7782 4.03539 13.4743 5.28586 14.725C5.36545 14.8019 5.42894 14.8938 5.47261 14.9955C5.51628 15.0972 5.53927 15.2065 5.54023 15.3172C5.5412 15.4278 5.52011 15.5376 5.47821 15.64C5.43631 15.7424 5.37443 15.8354 5.29619 15.9137C5.21794 15.9919 5.1249 16.0538 5.02249 16.0957C4.92007 16.1376 4.81034 16.1587 4.69969 16.1577C4.58904 16.1567 4.47969 16.1338 4.37802 16.0901C4.27635 16.0464 4.1844 15.9829 4.10752 15.9033C0.851691 12.6483 0.851691 7.37 4.10752 4.115C4.2638 3.95878 4.47572 3.87101 4.69669 3.87101C4.91766 3.87101 5.12959 3.95878 5.28586 4.115ZM15.8959 4.115C19.1509 7.37084 19.1509 12.6483 15.8959 15.9033C15.7396 16.0597 15.5276 16.1476 15.3066 16.1477C15.0855 16.1477 14.8735 16.06 14.7171 15.9038C14.5607 15.7475 14.4729 15.5355 14.4728 15.3145C14.4727 15.0934 14.5604 14.8814 14.7167 14.725C15.9672 13.4743 16.6696 11.7782 16.6696 10.0096C16.6696 8.24101 15.9672 6.54485 14.7167 5.29417C14.5603 5.1378 14.4725 4.92572 14.4725 4.70459C14.4725 4.48345 14.5603 4.27137 14.7167 4.115C14.8731 3.95864 15.0851 3.87079 15.3063 3.87079C15.5274 3.87079 15.7395 3.95864 15.8959 4.115ZM7.75836 6.51C7.91458 6.66627 8.00235 6.8782 8.00235 7.09917C8.00235 7.32014 7.91458 7.53206 7.75836 7.68834C7.45499 7.99168 7.21433 8.35181 7.05015 8.74816C6.88596 9.14451 6.80146 9.56932 6.80146 9.99834C6.80146 10.4273 6.88596 10.8522 7.05015 11.2485C7.21433 11.6449 7.45499 12.005 7.75836 12.3083C7.83573 12.3858 7.89709 12.4777 7.93894 12.5788C7.98079 12.6799 8.00232 12.7883 8.00228 12.8978C8.00224 13.0073 7.98064 13.1156 7.93872 13.2167C7.89679 13.3179 7.83537 13.4097 7.75794 13.4871C7.68052 13.5645 7.58861 13.6258 7.48747 13.6677C7.38633 13.7095 7.27794 13.731 7.16848 13.731C7.05902 13.731 6.95065 13.7094 6.84954 13.6674C6.74843 13.6255 6.65656 13.5641 6.57919 13.4867C5.65405 12.5615 5.13431 11.3067 5.13431 9.99834C5.13431 8.68996 5.65405 7.43518 6.57919 6.51C6.65659 6.43252 6.74849 6.37106 6.84966 6.32912C6.95082 6.28718 7.05926 6.2656 7.16877 6.2656C7.27829 6.2656 7.38673 6.28718 7.48789 6.32912C7.58906 6.37106 7.68096 6.43252 7.75836 6.51ZM13.5567 6.51C14.4818 7.43518 15.0016 8.68996 15.0016 9.99834C15.0016 11.3067 14.4818 12.5615 13.5567 13.4867C13.3995 13.6385 13.189 13.7225 12.9705 13.7206C12.752 13.7187 12.543 13.631 12.3885 13.4765C12.234 13.322 12.1464 13.113 12.1445 12.8945C12.1426 12.676 12.2266 12.4655 12.3784 12.3083C12.6817 12.005 12.9224 11.6449 13.0866 11.2485C13.2508 10.8522 13.3353 10.4273 13.3353 9.99834C13.3353 9.56932 13.2508 9.14451 13.0866 8.74816C12.9224 8.35181 12.6817 7.99168 12.3784 7.68834C12.2266 7.53117 12.1426 7.32067 12.1445 7.10217C12.1464 6.88367 12.234 6.67466 12.3885 6.52015C12.543 6.36565 12.752 6.27801 12.9705 6.27611C13.189 6.27421 13.3995 6.3582 13.5567 6.51ZM10.0684 8.81834C10.3999 8.81834 10.7178 8.95003 10.9522 9.18445C11.1867 9.41887 11.3184 9.73681 11.3184 10.0683C11.3184 10.3999 11.1867 10.7178 10.9522 10.9522C10.7178 11.1866 10.3999 11.3183 10.0684 11.3183C9.73684 11.3183 9.41889 11.1866 9.18447 10.9522C8.95005 10.7178 8.81836 10.3999 8.81836 10.0683C8.81836 9.73681 8.95005 9.41887 9.18447 9.18445C9.41889 8.95003 9.73684 8.81834 10.0684 8.81834Z" fill="#8B3FFC"/>
</svg>
