<svg width="14" height="14" viewBox="0 0 14 14" fill="none" xmlns="http://www.w3.org/2000/svg">
<path d="M6.45744 7.49583C6.90661 6.685 7.76994 6.20667 8.27161 5.48917C8.80244 4.73667 8.50494 3.33083 6.99994 3.33083C6.01411 3.33083 5.52994 4.0775 5.32577 4.69583L3.81494 4.06C4.22911 2.8175 5.35494 1.75 6.99411 1.75C8.36494 1.75 9.30411 2.37417 9.78244 3.15583C10.1908 3.82667 10.4299 5.08083 9.79994 6.01417C9.09994 7.04667 8.42911 7.36167 8.06744 8.02667C7.92161 8.295 7.86327 8.47 7.86327 9.33333H6.17744C6.17161 8.87833 6.10161 8.1375 6.45744 7.49583ZM8.16661 11.6667C8.16661 12.3083 7.64161 12.8333 6.99994 12.8333C6.35827 12.8333 5.83327 12.3083 5.83327 11.6667C5.83327 11.025 6.35827 10.5 6.99994 10.5C7.64161 10.5 8.16661 11.025 8.16661 11.6667Z" fill="#808080"/>
</svg>
