<svg width="20" height="20" viewBox="0 0 20 20" fill="none" xmlns="http://www.w3.org/2000/svg">
<g id="restart_alt">
<mask id="mask0_957_2720" style="mask-type:alpha" maskUnits="userSpaceOnUse" x="0" y="0" width="20" height="20">
<rect id="Bounding box" width="20" height="20" fill="#D9D9D9"/>
</mask>
<g mask="url(#mask0_957_2720)">
<path id="restart_alt_2" d="M8.35417 16.7708C7.0625 16.4236 6.01389 15.7292 5.20833 14.6875C4.40278 13.6458 4 12.4583 4 11.125C4 10.4167 4.10417 9.73264 4.3125 9.07292C4.52083 8.41319 4.84722 7.81944 5.29167 7.29167C5.43056 7.13889 5.60417 7.06597 5.8125 7.07292C6.02083 7.07986 6.20139 7.15972 6.35417 7.3125C6.49306 7.45139 6.5625 7.62153 6.5625 7.82292C6.5625 8.02431 6.5 8.20139 6.375 8.35417C6.06944 8.75694 5.84722 9.19792 5.70833 9.67708C5.56944 10.1562 5.5 10.6458 5.5 11.1458C5.5 12.1319 5.79514 13.0104 6.38542 13.7812C6.97569 14.5521 7.74306 15.0764 8.6875 15.3542C8.85417 15.4097 8.98958 15.5 9.09375 15.625C9.19792 15.75 9.25 15.8958 9.25 16.0625C9.25 16.2986 9.15972 16.4931 8.97917 16.6458C8.79861 16.7986 8.59028 16.8403 8.35417 16.7708ZM11.625 16.7917C11.4028 16.8611 11.2014 16.816 11.0208 16.6562C10.8403 16.4965 10.75 16.2986 10.75 16.0625C10.75 15.8958 10.8056 15.75 10.9167 15.625C11.0278 15.5 11.1597 15.4097 11.3125 15.3542C12.2708 15.0625 13.0417 14.5174 13.625 13.7188C14.2083 12.9201 14.5 12.0208 14.5 11.0208C14.5 9.77083 14.059 8.71181 13.1771 7.84375C12.2951 6.97569 11.2222 6.54167 9.95833 6.54167H9.89583L10.2292 6.875C10.3819 7.02778 10.4514 7.20139 10.4375 7.39583C10.4236 7.59028 10.3403 7.76389 10.1875 7.91667C10.0347 8.06944 9.85764 8.14583 9.65625 8.14583C9.45486 8.14583 9.28472 8.06944 9.14583 7.91667L7.54167 6.33333C7.47222 6.26389 7.42014 6.17708 7.38542 6.07292C7.35069 5.96875 7.33333 5.86111 7.33333 5.75C7.33333 5.65278 7.35417 5.55903 7.39583 5.46875C7.4375 5.37847 7.49306 5.29861 7.5625 5.22917L9.1875 3.60417C9.34028 3.45139 9.51389 3.375 9.70833 3.375C9.90278 3.375 10.0764 3.45139 10.2292 3.60417C10.3819 3.75694 10.4549 3.93403 10.4479 4.13542C10.441 4.33681 10.3681 4.51389 10.2292 4.66667L9.89583 5.04167H9.95833C11.6389 5.04167 13.066 5.62153 14.2396 6.78125C15.4132 7.94097 16 9.35417 16 11.0208C16 12.3681 15.5972 13.5764 14.7917 14.6458C13.9861 15.7153 12.9306 16.4306 11.625 16.7917Z" fill="#8D8D8D"/>
</g>
</g>
</svg>
