<svg width="20" height="20" viewBox="0 0 20 20" fill="none" xmlns="http://www.w3.org/2000/svg">
<mask id="mask0_13_389" style="mask-type:alpha" maskUnits="userSpaceOnUse" x="0" y="0" width="20" height="20">
<rect width="20" height="20" fill="#D9D9D9"/>
</mask>
<g mask="url(#mask0_13_389)">
<path d="M8.25094 15.5C6.48642 15.5 5.00347 14.8945 3.80208 13.6836C2.60069 12.4727 2 10.9948 2 9.25C2 7.48611 2.60069 6.00347 3.80208 4.80208C5.00347 3.60069 6.48264 3 8.23958 3C9.99653 3 11.4792 3.60069 12.6875 4.80208C13.8958 6.00347 14.5 7.48642 14.5 9.25094C14.5 9.98834 14.3854 10.683 14.1562 11.3348C13.9271 11.9866 13.5972 12.5764 13.1667 13.1042L16.4805 16.418C16.6324 16.5699 16.7083 16.7431 16.7083 16.9375C16.7083 17.1319 16.6319 17.3056 16.4792 17.4583C16.3264 17.6111 16.1493 17.6875 15.9479 17.6875C15.7465 17.6875 15.5699 17.612 15.418 17.461L12.1042 14.1667C11.5764 14.5972 10.9866 14.9271 10.3348 15.1562C9.68295 15.3854 8.98834 15.5 8.25094 15.5ZM8.25 14C9.58333 14 10.7083 13.5417 11.625 12.625C12.5417 11.7083 13 10.5799 13 9.23958C13 7.89931 12.5417 6.77431 11.625 5.86458C10.7083 4.95486 9.58333 4.5 8.25 4.5C6.90278 4.5 5.77431 4.95486 4.86458 5.86458C3.95486 6.77431 3.5 7.89931 3.5 9.23958C3.5 10.5799 3.95486 11.7083 4.86458 12.625C5.77431 13.5417 6.90278 14 8.25 14Z" fill="#1F1F1F"/>
</g>
</svg>
