<svg width="20" height="20" viewBox="0 0 20 20" fill="none" xmlns="http://www.w3.org/2000/svg">
<mask id="mask0_18_200" style="mask-type:alpha" maskUnits="userSpaceOnUse" x="0" y="0" width="20" height="20">
<rect width="20" height="20" fill="currentColor"/>
</mask>
<g mask="url(#mask0_18_200)">
<path d="M6.5 15C6.0875 15 5.73438 14.8531 5.44063 14.5594C5.14688 14.2656 5 13.9125 5 13.5V3.5C5 3.0875 5.14688 2.73438 5.44063 2.44063C5.73438 2.14688 6.0875 2 6.5 2H16.5C16.9125 2 17.2656 2.14688 17.5594 2.44063C17.8531 2.73438 18 3.0875 18 3.5V13.5C18 13.9125 17.8531 14.2656 17.5594 14.5594C17.2656 14.8531 16.9125 15 16.5 15H6.5ZM6.5 13.5H16.5V3.5H6.5V13.5ZM3.5 18C3.0875 18 2.73438 17.8531 2.44063 17.5594C2.14688 17.2656 2 16.9125 2 16.5V5.75C2 5.5375 2.07145 5.35937 2.21435 5.21562C2.35727 5.07187 2.53435 5 2.7456 5C2.95687 5 3.13542 5.07187 3.28125 5.21562C3.42708 5.35937 3.5 5.5375 3.5 5.75V16.5H14.25C14.4625 16.5 14.6406 16.5715 14.7844 16.7144C14.9281 16.8573 15 17.0344 15 17.2456C15 17.4569 14.9281 17.6354 14.7844 17.7812C14.6406 17.9271 14.4625 18 14.25 18H3.5Z" fill="currentColor"/>
</g>
</svg>
