<svg width="20" height="20" viewBox="0 0 20 20" fill="none" xmlns="http://www.w3.org/2000/svg">
<mask id="mask0_384_10991" style="mask-type:alpha" maskUnits="userSpaceOnUse" x="0" y="0" width="20" height="20">
<rect width="20" height="20" fill="#D9D9D9"/>
</mask>
<g mask="url(#mask0_384_10991)">
<path d="M2.33151 17C2.17998 17 2.04714 16.9657 1.93297 16.8969C1.81894 16.8282 1.73019 16.7375 1.66672 16.625C1.59727 16.5139 1.56602 16.3889 1.57297 16.25C1.57991 16.1112 1.61811 15.9792 1.68755 15.8542L9.35422 3.06254C9.42366 2.93754 9.51762 2.84726 9.63609 2.79171C9.75443 2.73615 9.87595 2.70837 10.0007 2.70837C10.1253 2.70837 10.2466 2.73615 10.3646 2.79171C10.4827 2.84726 10.5764 2.93754 10.6459 3.06254L18.3126 15.8542C18.382 15.9792 18.4202 16.1112 18.4271 16.25C18.4341 16.3889 18.4028 16.5139 18.3334 16.625C18.2639 16.7362 18.1737 16.8264 18.0626 16.8959C17.9514 16.9653 17.8201 17 17.6686 17H2.33151ZM9.99568 14.5C10.2069 14.5 10.3855 14.4286 10.5313 14.2857C10.6771 14.1427 10.7501 13.9657 10.7501 13.7544C10.7501 13.5432 10.6786 13.3646 10.5357 13.2188C10.3928 13.073 10.2157 13 10.0044 13C9.79318 13 9.61463 13.0715 9.4688 13.2144C9.32297 13.3573 9.25005 13.5344 9.25005 13.7457C9.25005 13.9569 9.32151 14.1355 9.46443 14.2813C9.60734 14.4271 9.78443 14.5 9.99568 14.5ZM9.99568 12C10.2069 12 10.3855 11.9282 10.5313 11.7844C10.6771 11.6407 10.7501 11.4625 10.7501 11.25V8.75004C10.7501 8.53754 10.6786 8.35942 10.5357 8.21567C10.3928 8.07192 10.2157 8.00004 10.0044 8.00004C9.79318 8.00004 9.61463 8.07192 9.4688 8.21567C9.32297 8.35942 9.25005 8.53754 9.25005 8.75004V11.25C9.25005 11.4625 9.32151 11.6407 9.46443 11.7844C9.60734 11.9282 9.78443 12 9.99568 12Z" fill="#8B3FFC"/>
</g>
</svg>
